<svg width="100" height="100" viewBox="0 0 100 100" fill="none" xmlns="http://www.w3.org/2000/svg">
<path d="M49.5 39.0037C52 39 54 39.4998 55 41.4999C56 43.5 58 57.9962 59 60C60 62.0037 64 62.0074 65 60.0037C66 58 66 51.5074 67.5 50.0037C69 48.5 70.7213 49.8537 73.5 50.0037C77.4043 50.2144 82 50.0037 82 50.0037M9.27242 45.6156L9.27244 54.5504C9.27221 58.7398 9.27164 62.3097 9.27074 63.4843C9.26832 66.6115 16.6845 67.0582 16.6845 63.4843C16.6845 59.9103 16.6845 40.2526 16.6845 36.6797C16.6845 33.1068 9.26832 33.1068 9.27074 36.6797C9.27162 37.9887 9.27218 41.5166 9.27242 45.6156ZM9.27244 54.5504C1.22072 54.5504 0.603359 45.6156 9.27242 45.6156M90.7276 45.6156L90.7275 54.5504C90.7278 58.7398 90.7283 62.3097 90.7292 63.4843C90.7317 66.6115 83.3155 67.0582 83.3155 63.4843V36.6797C83.3155 33.1068 90.7317 33.1068 90.7292 36.6797C90.7284 37.9887 90.7278 41.5166 90.7276 45.6156ZM90.7275 54.5504C98.7793 54.5504 99.3966 45.6156 90.7276 45.6156M50 39C48 39 45.5 39.4997 44.5 41.4998C43.5 43.4999 41.5 57.9961 40.5 59.9999C39.5 62.0036 35.5 62.0073 34.5 60.0036C33.5 57.9999 33.5 51.5073 32 50.0036C30.5 48.4999 28.7787 49.8536 26 50.0036C22.0957 50.2143 17.5 50.0036 17.5 50.0036" stroke="black" stroke-width="3" stroke-linecap="round"/>
</svg>
