<svg width="100" height="100" viewBox="0 0 100 100" fill="none" xmlns="http://www.w3.org/2000/svg">
<path d="M77.5 54C77.5 53.7239 77.2761 53.5 77 53.5H31C30.7239 53.5 30.5 53.7239 30.5 54V55C30.5 55.2761 30.7239 55.5 31 55.5H77C77.2761 55.5 77.5 55.2761 77.5 55V54ZM72.5 59H74.5V58.5H72.5V59ZM36 59H37.5V58.5H36V59ZM80.5 55C80.5 56.7632 79.1961 58.2212 77.5 58.4639V59H79.5C80.3284 59 81 59.6716 81 60.5C81 61.3284 80.3284 62 79.5 62H68C67.1716 62 66.5 61.3284 66.5 60.5C66.5 59.6716 67.1716 59 68 59H69.5V58.5H40.5V59H42.5C43.3284 59 44 59.6716 44 60.5C44 61.3284 43.3284 62 42.5 62H28.5C27.6716 62 27 61.3284 27 60.5C27 59.6716 27.6716 59 28.5 59H33V58.5H31C29.4145 58.5 28.0758 57.4457 27.6455 56H25.5C23.567 56 22 54.433 22 52.5V46.5C22 45.6716 22.6716 45 23.5 45C24.3284 45 25 45.6716 25 46.5V52.5C25 52.7761 25.2239 53 25.5 53H27.6455C28.0758 51.5543 29.4145 50.5 31 50.5H77C78.933 50.5 80.5 52.067 80.5 54V55Z"/>
<path d="M25 42.5C25 41.6716 24.3284 41 23.5 41C22.6716 41 22 41.6716 22 42.5C22 43.3284 22.6716 44 23.5 44V47C21.0147 47 19 44.9853 19 42.5C19 40.0147 21.0147 38 23.5 38C25.9853 38 28 40.0147 28 42.5C28 44.9853 25.9853 47 23.5 47V44C24.3284 44 25 43.3284 25 42.5Z"/>
</svg>
