<svg width="100" height="100" viewBox="0 0 100 100" fill="none" xmlns="http://www.w3.org/2000/svg">
<path d="M81.9431 67.7778C81.9431 67.471 81.6872 67.2222 81.3717 67.2222H81.1652V71.6667H81.9431V67.7778ZM18.4777 71.6667H19.6763V67.2222H19.0491C18.7335 67.2222 18.4777 67.471 18.4777 67.7778V71.6667ZM85.3717 71.6667H88.2857C89.2325 71.6667 90 72.4129 90 73.3333C90 74.2538 89.2325 75 88.2857 75H75.2433C74.2965 75 73.529 74.2538 73.529 73.3333C73.529 72.4129 74.2965 71.6667 75.2433 71.6667H77.7366V67.2222H23.1049V71.6678C24.0373 71.6839 24.7879 72.423 24.7879 73.3333C24.7879 74.2538 24.0204 75 23.0737 75H11.7143C10.7675 75 10 74.2538 10 73.3333C10 72.4129 10.7675 71.6667 11.7143 71.6667H15.0491V67.7778C15.0491 65.63 16.84 63.8889 19.0491 63.8889H81.3717C83.5808 63.8889 85.3717 65.63 85.3717 67.7778V71.6667Z"/>
<path d="M52.2857 28.8889C52.2857 28.5821 52.0299 28.3333 51.7143 28.3333C51.3987 28.3333 51.1429 28.5821 51.1429 28.8889V36.6667C51.1429 36.9735 51.3987 37.2222 51.7143 37.2222C52.0299 37.2222 52.2857 36.9735 52.2857 36.6667V28.8889ZM55.7143 36.6667C55.7143 38.8144 53.9234 40.5556 51.7143 40.5556C49.5051 40.5556 47.7143 38.8144 47.7143 36.6667V34.4444H46C45.6844 34.4444 45.4286 34.6932 45.4286 35V65.5556C45.4286 66.476 44.6611 67.2222 43.7143 67.2222C42.7675 67.2222 42 66.476 42 65.5556V35C42 32.8522 43.7909 31.1111 46 31.1111H47.7143V28.8889C47.7143 26.7411 49.5051 25 51.7143 25C53.9234 25 55.7143 26.7411 55.7143 28.8889V36.6667Z"/>
<path d="M79.7143 51.6667C79.7143 49.5189 77.9234 47.7778 75.7143 47.7778C73.5051 47.7778 71.7143 49.5189 71.7143 51.6667C71.7143 53.8144 73.5051 55.5556 75.7143 55.5556V58.8889C71.6116 58.8889 68.2857 55.6554 68.2857 51.6667C68.2857 47.6779 71.6116 44.4444 75.7143 44.4444C79.817 44.4444 83.1429 47.6779 83.1429 51.6667C83.1429 55.6554 79.817 58.8889 75.7143 58.8889V55.5556C77.9234 55.5556 79.7143 53.8144 79.7143 51.6667Z"/>
<path d="M70 50.5556C70.9468 50.5556 71.7143 51.3017 71.7143 52.2222C71.7143 53.1427 70.9468 53.8889 70 53.8889H58C57.0532 53.8889 56.2857 53.1427 56.2857 52.2222C56.2857 51.3017 57.0532 50.5556 58 50.5556H70Z"/>
<path d="M59.1429 50.5556C60.0896 50.5556 60.8571 51.3017 60.8571 52.2222C60.8571 53.1427 60.0896 53.8889 59.1429 53.8889H44.8571C43.9104 53.8889 43.1429 53.1427 43.1429 52.2222C43.1429 51.3017 43.9104 50.5556 44.8571 50.5556H59.1429Z"/>
</svg>
